<svg width="229" height="125" viewBox="0 0 229 125" fill="none" xmlns="http://www.w3.org/2000/svg">
<circle cx="181.319" cy="61.8132" r="46.7033" fill="#FEDB41"/>
<path d="M3.85714 64.1319C3.85714 86.3846 17.5055 99.9341 37.978 99.9341C51.033 99.9341 62.8022 93.9011 68.9341 83.022L52.8132 75.6044C49.9451 80.9451 45.1978 84.1099 39.0659 84.1099C30.3626 84.1099 23.2418 77.3846 23.2418 64.1319C23.2418 50.8791 30.3626 44.1538 39.0659 44.1538C45.1978 44.1538 49.9451 47.3187 52.8132 52.6593L68.9341 45.2418C62.8022 34.3626 51.033 28.3297 37.978 28.3297C17.5055 28.3297 3.85714 41.8791 3.85714 64.1319Z" fill="black"/>
<path d="M105.253 85.6044V97.3736H123.352V85.6044H131.758V71.4615H123.352V28.1429H105.846L74.3956 72.1538V85.6044H105.253ZM105.253 52.7692V71.4615H91.7033L105.253 52.7692Z" fill="black"/>
<path d="M201.736 79.8571C199.758 81.5055 197.418 82.8571 194.714 83.9121C192.011 84.9011 189.176 85.4945 186.209 85.6923L185.418 96.3736H173.549L174.44 84.4066C169.494 82.8242 165.637 80.0879 162.868 76.1978C160.099 72.2418 158.714 67.5275 158.714 62.0549C158.714 55.1319 160.429 49.4286 163.857 44.9451C167.352 40.3956 172.165 37.4286 178.297 36.044L179.187 24.6703H191.055L190.264 35.4505C196 36.1099 200.846 38.0549 204.802 41.2857L199.956 51.4725C195.67 48.3077 191.253 46.7253 186.703 46.7253C182.681 46.7253 179.549 48.044 177.308 50.6813C175.132 53.3187 174.044 57.044 174.044 61.8571C174.044 65.8791 175.033 68.978 177.011 71.1538C179.055 73.2637 181.791 74.3187 185.22 74.3187C187.659 74.3187 189.934 73.9231 192.044 73.1319C194.22 72.3407 196.429 71.1538 198.67 69.5714L201.736 79.8571Z" fill="black"/>
</svg>
