<svg width="88" height="95" viewBox="0 0 88 95" fill="none" xmlns="http://www.w3.org/2000/svg">
<circle cx="45.1225" cy="51.8606" r="34" transform="rotate(-16.5458 45.1225 51.8606)" fill="#FEDB41"/>
<path d="M62.4723 61.5781C61.4337 63.1385 60.0805 64.567 58.4127 65.8637C56.7312 67.1143 54.8757 68.1162 52.8462 68.8694L54.5085 76.4874L46.2262 78.948L44.3664 70.4122C40.5874 70.3331 37.3284 69.2232 34.5893 67.0826C31.8366 64.896 29.893 61.8931 28.7585 58.0741C27.3232 53.2428 27.3371 48.9073 28.8002 45.0677C30.2957 41.1683 33.0394 38.0999 37.0315 35.8624L35.2947 27.7407L43.577 25.2802L45.2598 32.9672C49.3995 32.2381 53.1847 32.5908 56.6153 34.0252L55.3453 42.1388C51.6983 40.8188 48.2874 40.6303 45.1126 41.5735C42.3058 42.4074 40.3936 43.9769 39.376 46.2822C38.4043 48.5738 38.4175 51.399 39.4153 54.7579C40.2492 57.5647 41.5818 59.5222 43.4133 60.6305C45.2771 61.6792 47.4053 61.8481 49.798 61.1373C51.5004 60.6315 53.0059 59.8838 54.3142 58.8943C55.6686 57.891 56.964 56.6049 58.2003 55.0358L62.4723 61.5781Z" fill="black"/>
</svg>
