<svg width="418" height="311" viewBox="0 0 418 311" fill="none" xmlns="http://www.w3.org/2000/svg">
<g clip-path="url(#clip0)">
<path d="M76.9284 84.7209C66.0187 84.7209 57.1754 93.565 57.1754 104.474V234.092H96.6821V104.474C96.6813 93.5642 87.8372 84.7209 76.9284 84.7209Z" fill="#FF9B5F"/>
<path d="M69.5382 215.997V104.474C69.5382 93.5642 60.6941 84.7209 49.7844 84.7209C38.8748 84.7209 30.0315 93.565 30.0315 104.474L30.1417 229.009C30.145 233.517 31.9566 240.421 34.1658 244.35L112.413 371.061C114.622 374.99 116.428 381.894 116.428 386.402V411.215H195.429V368.691L162.315 287.715L69.5382 215.997Z" fill="#FEBB8E"/>
<path d="M195.431 318.79C195.431 305.266 187.606 286.377 178.044 276.813L103.26 202.03C95.5457 194.315 83.0383 194.315 75.3241 202.03C67.6099 209.744 67.6099 222.251 75.3241 229.965L135.691 290.332V308.073C135.691 341.552 161.951 368.692 195.431 368.692V318.79Z" fill="#FCD5A2"/>
<path d="M341.073 84.7209C351.983 84.7209 360.826 93.565 360.826 104.474V234.092H321.32V104.474C321.32 93.5642 330.165 84.7209 341.073 84.7209Z" fill="#FF9B5F"/>
<path d="M348.463 215.997V104.474C348.463 93.5642 357.307 84.7209 368.217 84.7209C379.127 84.7209 387.97 93.565 387.97 104.474L387.86 229.009C387.857 233.517 386.045 240.421 383.836 244.35L305.589 371.06C303.38 374.989 301.571 381.894 301.571 386.401V411.214H222.571V368.69L255.685 287.714L348.463 215.997Z" fill="#FEBB8E"/>
<path d="M222.571 318.79C222.571 305.266 230.395 286.377 239.959 276.813L314.742 202.03C322.457 194.315 334.964 194.315 342.678 202.03C350.392 209.744 350.392 222.251 342.678 229.965L282.312 290.332V308.073C282.312 341.552 256.051 368.692 222.572 368.692V318.79H222.571Z" fill="#FCD5A2"/>
<path d="M108.058 197.231C99.4751 188.648 86.4305 187.191 76.3243 192.848V104.474C76.3243 99.9853 75.1992 95.7555 73.2244 92.0449C74.413 91.6914 75.6581 91.5053 76.9276 91.5053C84.0777 91.5053 89.8946 97.3222 89.8946 104.472V169.714C89.8946 173.461 92.9324 176.5 96.6805 176.5C100.429 176.5 103.467 173.462 103.467 169.714V104.472C103.467 89.839 91.5608 77.9341 76.9284 77.9341C72.0879 77.9341 67.4213 79.2412 63.3483 81.6733C59.3765 79.3016 54.7385 77.9341 49.7861 77.9341C35.1529 77.9341 23.248 89.839 23.248 104.479L23.3583 229.014C23.3632 234.698 25.467 242.719 28.2518 247.674C28.2967 247.756 28.3449 247.835 28.3939 247.915L106.559 374.492C108.182 377.452 109.645 383.082 109.645 386.4V411.214C109.645 414.961 112.683 418 116.431 418C120.178 418 123.217 414.962 123.217 411.214V386.401C123.217 380.716 121.116 372.691 118.33 367.735C118.283 367.653 118.237 367.574 118.188 367.494L40.0211 240.918C38.3973 237.957 36.9302 232.324 36.9277 229.004L36.8175 104.475C36.8175 97.3246 42.6352 91.5077 49.7845 91.5077C56.9338 91.5077 62.7523 97.3246 62.7523 104.475V215.997C62.7523 216.157 62.7654 216.313 62.776 216.469C62.8936 223.107 65.471 229.709 70.5253 234.763L131.304 295.541C133.954 298.191 138.251 298.191 140.9 295.541C143.55 292.891 143.55 288.595 140.9 285.945L80.1214 225.166C75.0654 220.11 75.0654 211.884 80.1214 206.828C85.1774 201.772 93.4043 201.772 98.4611 206.828L173.245 281.611C181.592 289.958 188.645 306.984 188.645 318.79V411.212C188.645 414.96 191.682 417.998 195.431 417.998C199.178 417.998 202.217 414.961 202.217 411.212V318.79C202.217 303.426 193.706 282.879 182.841 272.015L108.058 197.231Z" fill="#1D2328"/>
<path d="M368.217 77.935C363.265 77.935 358.627 79.3024 354.655 81.6741C350.583 79.242 345.915 77.935 341.075 77.935C326.442 77.935 314.537 89.8398 314.537 104.473V169.715C314.537 173.462 317.575 176.501 321.323 176.501C325.071 176.501 328.109 173.463 328.109 169.715V104.473C328.109 97.323 333.927 91.5061 341.076 91.5061C342.345 91.5061 343.59 91.6914 344.779 92.0457C342.804 95.7563 341.679 99.9861 341.679 104.475V192.849C331.574 187.193 318.529 188.649 309.945 197.232L235.162 272.016C224.297 282.881 215.786 303.426 215.786 318.791V411.213C215.786 414.961 218.824 417.999 222.572 417.999C226.32 417.999 229.358 414.961 229.358 411.213V318.79C229.358 306.985 236.411 289.959 244.758 281.612L319.541 206.828C324.597 201.772 332.824 201.772 337.88 206.828C342.936 211.884 342.936 220.111 337.88 225.167L277.101 285.945C274.451 288.596 274.451 292.891 277.101 295.541C279.751 298.192 284.048 298.192 286.697 295.541L347.476 234.763C352.531 229.709 355.108 223.107 355.226 216.47C355.236 216.313 355.249 216.157 355.249 215.998V104.474C355.249 97.3238 361.067 91.5069 368.216 91.5069C375.366 91.5069 381.184 97.3238 381.184 104.468L381.074 229.004C381.072 232.324 379.604 237.957 377.981 240.918L299.815 367.495C299.766 367.574 299.72 367.655 299.673 367.736C296.888 372.693 294.786 380.718 294.786 386.403V411.215C294.786 414.962 297.824 418.001 301.572 418.001C305.32 418.001 308.358 414.963 308.358 411.215V386.402C308.358 383.083 309.821 377.454 311.444 374.494L389.609 247.916C389.658 247.838 389.707 247.757 389.752 247.676C392.536 242.72 394.641 234.699 394.645 229.016L394.755 104.476C394.756 89.8398 382.85 77.935 368.217 77.935Z" fill="#1D2328"/>
</g>
<defs>
<clipPath id="clip0">
<rect width="418" height="418" fill="white"/>
</clipPath>
</defs>
</svg>
