<svg width="587" height="859" viewBox="0 0 587 859" fill="none" xmlns="http://www.w3.org/2000/svg">
<g clip-path="url(#clip0)">
<path d="M269.444 48.8561L40.4448 164.303C28.7536 170.197 24.0367 184.505 29.9307 196.196L106.895 348.862C112.789 360.554 127.097 365.27 138.788 359.377L367.788 243.93C379.479 238.036 384.196 223.728 378.302 212.036L301.337 59.3702C295.443 47.6791 281.135 42.9622 269.444 48.8561Z" fill="#5D647F"/>
<path d="M155.295 212.773L104.407 238.428C99.7221 240.79 94.0108 238.907 91.6493 234.222L74.546 200.297C72.1844 195.612 74.0672 189.901 78.7517 187.539L129.64 161.884C134.325 159.523 140.036 161.406 142.398 166.09L159.501 200.016C161.863 204.7 159.98 210.412 155.295 212.773Z" fill="#FFD100"/>
<path d="M153.403 282.868L132.199 293.558C127.515 295.919 121.804 294.036 119.442 289.352L117.304 285.111C114.943 280.427 116.825 274.715 121.51 272.354L142.713 261.664C147.398 259.303 153.109 261.186 155.471 265.87L157.609 270.111C159.97 274.795 158.087 280.506 153.403 282.868Z" fill="#B8BAC0"/>
<path d="M208.532 255.075L187.329 265.765C182.644 268.126 176.933 266.244 174.572 261.559L172.434 257.318C170.072 252.634 171.955 246.923 176.639 244.561L197.843 233.872C202.527 231.51 208.239 233.393 210.6 238.077L212.738 242.318C215.1 247.002 213.217 252.714 208.532 255.075Z" fill="#B8BAC0"/>
<path d="M263.662 227.282L242.458 237.972C237.774 240.334 232.063 238.451 229.701 233.766L227.563 229.526C225.201 224.841 227.084 219.13 231.769 216.768L252.972 206.079C257.657 203.717 263.368 205.6 265.73 210.284L267.868 214.525C270.229 219.21 268.346 224.921 263.662 227.282Z" fill="#B8BAC0"/>
<path d="M318.791 199.49L297.588 210.179C292.903 212.541 287.192 210.658 284.83 205.974L282.693 201.733C280.331 197.048 282.214 191.337 286.898 188.976L308.102 178.286C312.786 175.924 318.498 177.807 320.859 182.492L322.997 186.732C325.359 191.417 323.476 197.128 318.791 199.49Z" fill="#B8BAC0"/>
<path d="M225.601 278.382L140.786 321.14C138.442 322.322 135.588 321.379 134.407 319.037C133.227 316.695 134.166 313.84 136.51 312.658L221.325 269.9C223.669 268.719 226.523 269.661 227.703 272.003C228.884 274.345 227.945 277.2 225.601 278.382Z" fill="#8A8895"/>
<path d="M280.73 250.589L242.564 269.83C240.219 271.012 237.366 270.069 236.185 267.727C235.004 265.385 235.944 262.53 238.288 261.349L276.454 242.108C278.798 240.926 281.652 241.868 282.833 244.21C284.014 246.552 283.074 249.407 280.73 250.589Z" fill="#8A8895"/>
<path d="M252.798 152.983C250.763 160.537 245.644 167.225 238.108 171.024C224.056 178.109 206.921 172.46 199.836 158.407C192.752 144.355 198.401 127.22 212.453 120.135C219.988 116.337 228.408 116.199 235.69 119.054" fill="#FF4F19"/>
<path d="M153.087 187.294L110.68 208.673L106.404 200.191L148.811 178.812L144.536 170.331L102.128 191.71L95.7146 178.988L87.2332 183.263L112.888 234.152L121.369 229.876L114.956 217.154L157.363 195.775L153.087 187.294Z" fill="#FF9500"/>
<path d="M274.036 152.912C288.088 145.827 293.737 128.693 286.653 114.64C279.568 100.588 262.433 94.9387 248.381 102.023C234.328 109.107 228.68 126.242 235.764 140.295C242.848 154.347 259.983 159.996 274.036 152.912Z" fill="#FFD100"/>
</g>
<g clip-path="url(#clip1)">
<path d="M245.928 525.721C235.019 525.721 226.175 534.565 226.175 545.474V675.092H265.682V545.474C265.681 534.564 256.837 525.721 245.928 525.721Z" fill="#FF9B5F"/>
<path d="M238.538 656.997V545.474C238.538 534.564 229.694 525.721 218.784 525.721C207.875 525.721 199.031 534.565 199.031 545.474L199.142 670.009C199.145 674.517 200.957 681.421 203.166 685.35L281.413 812.061C283.622 815.99 285.428 822.894 285.428 827.402V852.215H364.429V809.691L331.315 728.715L238.538 656.997Z" fill="#FEBB8E"/>
<path d="M364.431 759.79C364.431 746.266 356.606 727.377 347.044 717.813L272.26 643.03C264.546 635.315 252.038 635.315 244.324 643.03C236.61 650.744 236.61 663.251 244.324 670.965L304.691 731.332V749.073C304.691 782.552 330.951 809.692 364.431 809.692V759.79Z" fill="#FCD5A2"/>
<path d="M510.073 525.721C520.983 525.721 529.826 534.565 529.826 545.474V675.092H490.32V545.474C490.32 534.564 499.165 525.721 510.073 525.721Z" fill="#FF9B5F"/>
<path d="M517.463 656.997V545.474C517.463 534.564 526.307 525.721 537.217 525.721C548.127 525.721 556.97 534.565 556.97 545.474L556.86 670.009C556.857 674.517 555.045 681.421 552.836 685.35L474.589 812.06C472.38 815.989 470.571 822.894 470.571 827.401V852.214H391.571V809.69L424.685 728.714L517.463 656.997Z" fill="#FEBB8E"/>
<path d="M391.571 759.79C391.571 746.266 399.395 727.377 408.959 717.813L483.742 643.03C491.457 635.315 503.964 635.315 511.678 643.03C519.392 650.744 519.392 663.251 511.678 670.965L451.312 731.332V749.073C451.312 782.552 425.051 809.692 391.572 809.692V759.79H391.571Z" fill="#FCD5A2"/>
<path d="M277.058 638.231C268.475 629.648 255.431 628.191 245.324 633.848V545.474C245.324 540.985 244.199 536.755 242.224 533.045C243.413 532.691 244.658 532.505 245.928 532.505C253.078 532.505 258.895 538.322 258.895 545.472V610.714C258.895 614.461 261.932 617.5 265.681 617.5C269.429 617.5 272.466 614.462 272.466 610.714V545.472C272.466 530.839 260.561 518.934 245.928 518.934C241.088 518.934 236.421 520.241 232.348 522.673C228.376 520.302 223.738 518.934 218.786 518.934C204.153 518.934 192.248 530.839 192.248 545.479L192.358 670.014C192.363 675.698 194.467 683.719 197.252 688.674C197.297 688.756 197.345 688.835 197.394 688.915L275.559 815.492C277.182 818.452 278.645 824.082 278.645 827.4V852.214C278.645 855.961 281.683 859 285.431 859C289.178 859 292.217 855.962 292.217 852.214V827.401C292.217 821.716 290.116 813.691 287.33 808.735C287.283 808.653 287.237 808.574 287.188 808.494L209.021 681.918C207.397 678.957 205.93 673.324 205.928 670.004L205.818 545.475C205.818 538.325 211.635 532.508 218.785 532.508C225.934 532.508 231.752 538.325 231.752 545.475V656.997C231.752 657.157 231.765 657.313 231.776 657.469C231.894 664.107 234.471 670.709 239.525 675.763L300.304 736.541C302.954 739.191 307.251 739.191 309.9 736.541C312.55 733.891 312.55 729.595 309.9 726.945L249.121 666.166C244.065 661.11 244.065 652.884 249.121 647.828C254.177 642.772 262.404 642.772 267.461 647.828L342.245 722.611C350.592 730.958 357.645 747.984 357.645 759.79V852.212C357.645 855.96 360.682 858.998 364.431 858.998C368.178 858.998 371.217 855.961 371.217 852.212V759.79C371.217 744.426 362.706 723.879 351.841 713.015L277.058 638.231Z" fill="#1D2328"/>
<path d="M537.217 518.935C532.265 518.935 527.627 520.302 523.655 522.674C519.583 520.242 514.915 518.935 510.075 518.935C495.442 518.935 483.537 530.84 483.537 545.473V610.715C483.537 614.462 486.575 617.5 490.323 617.5C494.071 617.5 497.109 614.463 497.109 610.715V545.473C497.109 538.323 502.927 532.506 510.076 532.506C511.345 532.506 512.59 532.691 513.779 533.046C511.804 536.756 510.679 540.986 510.679 545.475V633.849C500.574 628.193 487.529 629.649 478.945 638.232L404.162 713.016C393.297 723.881 384.786 744.426 384.786 759.791V852.213C384.786 855.961 387.824 858.999 391.572 858.999C395.32 858.999 398.358 855.961 398.358 852.213V759.79C398.358 747.985 405.411 730.959 413.758 722.612L488.541 647.828C493.597 642.772 501.824 642.772 506.88 647.828C511.936 652.884 511.936 661.111 506.88 666.167L446.101 726.945C443.451 729.596 443.451 733.891 446.101 736.541C448.751 739.192 453.048 739.192 455.697 736.541L516.476 675.763C521.531 670.709 524.108 664.107 524.226 657.47C524.236 657.313 524.249 657.157 524.249 656.998V545.474C524.249 538.324 530.067 532.507 537.216 532.507C544.366 532.507 550.184 538.324 550.184 545.468L550.074 670.004C550.072 673.324 548.604 678.957 546.981 681.918L468.815 808.495C468.766 808.574 468.72 808.655 468.673 808.736C465.888 813.693 463.786 821.718 463.786 827.403V852.215C463.786 855.962 466.824 859.001 470.572 859.001C474.32 859.001 477.358 855.963 477.358 852.215V827.402C477.358 824.083 478.821 818.454 480.444 815.494L558.609 688.916C558.658 688.838 558.707 688.757 558.752 688.676C561.536 683.72 563.641 675.699 563.645 670.016L563.755 545.476C563.756 530.84 551.85 518.935 537.217 518.935Z" fill="#1D2328"/>
</g>
<circle cx="414.234" cy="426.532" r="34" transform="rotate(-18.5549 414.234 426.532)" fill="#FEDB41"/>
<path d="M431.914 435.635C430.931 437.231 429.628 438.706 428.007 440.061C426.37 441.369 424.551 442.436 422.549 443.26L424.478 450.815L416.287 453.564L414.129 445.099C410.349 445.152 407.053 444.157 404.241 442.114C401.413 440.025 399.366 437.092 398.098 433.315C396.494 428.537 396.356 424.204 397.684 420.316C399.041 416.366 401.676 413.203 405.587 410.827L403.567 402.772L411.758 400.022L413.709 407.646C417.82 406.772 421.616 406.991 425.094 408.305L424.11 416.458C420.419 415.266 417.003 415.198 413.863 416.252C411.088 417.183 409.232 418.819 408.295 421.159C407.405 423.483 407.517 426.306 408.632 429.628C409.564 432.404 410.964 434.313 412.833 435.357C414.733 436.339 416.866 436.433 419.232 435.639C420.916 435.074 422.394 434.274 423.667 433.239C424.985 432.189 426.235 430.858 427.415 429.247L431.914 435.635Z" fill="black"/>
<circle cx="430.527" cy="533.272" r="34" transform="rotate(-21.034 430.527 533.272)" fill="#FEDB41"/>
<path d="M448.584 541.602C447.671 543.238 446.433 544.768 444.872 546.192C443.294 547.57 441.522 548.714 439.558 549.624L441.811 557.088L433.747 560.189L431.225 551.825C427.451 552.042 424.115 551.191 421.217 549.271C418.302 547.307 416.129 544.465 414.699 540.747C412.89 536.042 412.565 531.719 413.723 527.777C414.909 523.772 417.404 520.499 421.209 517.955L418.842 509.995L426.906 506.894L429.185 514.425C433.255 513.375 437.057 513.43 440.589 514.591L439.958 522.78C436.219 521.749 432.803 521.828 429.712 523.017C426.979 524.068 425.196 525.782 424.362 528.16C423.572 530.52 423.806 533.336 425.064 536.607C426.115 539.339 427.597 541.187 429.509 542.148C431.449 543.048 433.584 543.05 435.914 542.154C437.572 541.516 439.014 540.653 440.241 539.564C441.513 538.458 442.703 537.075 443.813 535.414L448.584 541.602Z" fill="black"/>
<circle cx="316.122" cy="486.861" r="34" transform="rotate(-16.5458 316.122 486.861)" fill="#FEDB41"/>
<path d="M333.472 496.578C332.434 498.139 331.08 499.567 329.413 500.864C327.731 502.114 325.876 503.116 323.846 503.869L325.508 511.487L317.226 513.948L315.366 505.412C311.587 505.333 308.328 504.223 305.589 502.083C302.837 499.896 300.893 496.893 299.758 493.074C298.323 488.243 298.337 483.907 299.8 480.068C301.296 476.168 304.039 473.1 308.032 470.862L306.295 462.741L314.577 460.28L316.26 467.967C320.4 467.238 324.185 467.591 327.615 469.025L326.345 477.139C322.698 475.819 319.287 475.63 316.113 476.574C313.306 477.407 311.394 478.977 310.376 481.282C309.404 483.574 309.417 486.399 310.415 489.758C311.249 492.565 312.582 494.522 314.413 495.631C316.277 496.679 318.405 496.848 320.798 496.137C322.5 495.632 324.006 494.884 325.314 493.894C326.669 492.891 327.964 491.605 329.2 490.036L333.472 496.578Z" fill="black"/>
<circle cx="320.784" cy="369.489" r="34" transform="rotate(-33.9757 320.784 369.489)" fill="#FEDB41"/>
<path d="M340.248 373.563C339.725 375.363 338.862 377.131 337.659 378.868C336.429 380.565 334.959 382.076 333.248 383.403L337.116 390.173L329.951 395.002L325.62 387.415C321.991 388.471 318.549 388.389 315.294 387.167C312.013 385.905 309.259 383.622 307.033 380.319C304.216 376.139 302.931 371.998 303.177 367.897C303.435 363.729 305.134 359.979 308.273 356.649L304.183 349.42L311.348 344.592L315.256 351.422C318.987 349.486 322.704 348.689 326.407 349.03L327.626 357.151C323.751 356.984 320.44 357.826 317.693 359.677C315.265 361.313 313.911 363.383 313.631 365.888C313.39 368.365 314.249 371.057 316.207 373.962C317.843 376.391 319.701 377.859 321.78 378.368C323.873 378.81 325.954 378.334 328.024 376.939C329.497 375.946 330.709 374.782 331.661 373.446C332.652 372.083 333.503 370.468 334.213 368.601L340.248 373.563Z" fill="black"/>
<circle cx="427.757" cy="322.28" r="34" transform="rotate(17.7766 427.757 322.28)" fill="#FEDB41"/>
<path d="M436.607 340.088C434.869 340.791 432.946 341.208 430.837 341.338C428.744 341.423 426.646 341.204 424.545 340.682L421.623 347.911L413.395 345.273L416.672 337.175C413.596 334.978 411.53 332.224 410.475 328.912C409.435 325.554 409.523 321.978 410.739 318.184C412.278 313.385 414.734 309.812 418.107 307.466C421.541 305.089 425.537 304.102 430.095 304.505L433.24 296.818L441.468 299.456L438.523 306.753C442.353 308.485 445.281 310.911 447.305 314.03L441.681 320.015C439.414 316.868 436.703 314.789 433.549 313.778C430.761 312.884 428.297 313.102 426.157 314.432C424.062 315.777 422.48 318.118 421.41 321.454C420.516 324.243 420.513 326.611 421.401 328.559C422.349 330.476 424.011 331.815 426.388 332.577C428.079 333.119 429.744 333.351 431.382 333.271C433.067 333.206 434.862 332.875 436.767 332.276L436.607 340.088Z" fill="black"/>
<defs>
<clipPath id="clip0">
<rect y="136.826" width="303.946" height="303.946" transform="rotate(-26.7543 0 136.826)" fill="white"/>
</clipPath>
<clipPath id="clip1">
<rect x="169" y="441" width="418" height="418" fill="white"/>
</clipPath>
</defs>
</svg>
